<svg xmlns="http://www.w3.org/2000/svg" id="Layer_1" data-name="Layer 1" viewBox="0 0 313 144"><defs><style>.cls-1{fill:#231f20;}</style></defs><title>logo</title><g id="_Group_" data-name="&lt;Group&gt;"><path id="_Path_" data-name="&lt;Path&gt;" class="cls-1" d="M70.62,9a2,2,0,1,0,0-3.33A2,2,0,0,0,70.62,9Z"></path><path id="_Path_2" data-name="&lt;Path&gt;" class="cls-1" d="M41.72,16.05a2,2,0,1,0-3.42,1A2,2,0,0,0,41.72,16.05Z"></path><path id="_Path_3" data-name="&lt;Path&gt;" class="cls-1" d="M102.5,17.52a2,2,0,1,0,0-3.35A2,2,0,0,0,102.5,17.52Z"></path><path id="_Path_4" data-name="&lt;Path&gt;" class="cls-1" d="M55.77,20.92a3,3,0,1,0,.53-5.23A3,3,0,0,0,55.77,20.92Z"></path><path id="_Path_5" data-name="&lt;Path&gt;" class="cls-1" d="M84.32,15.73a3,3,0,1,0,4.33,3.17A3,3,0,0,0,84.32,15.73Z"></path><path id="_Path_6" data-name="&lt;Path&gt;" class="cls-1" d="M69.6,29.58A4.18,4.18,0,0,0,75.76,26a4.13,4.13,0,1,0-6.16,3.54Z"></path><path id="_Path_7" data-name="&lt;Path&gt;" class="cls-1" d="M47.09,28.42a4.13,4.13,0,1,0,6.12,4A4.14,4.14,0,0,0,47.09,28.42Z"></path><path id="_Path_8" data-name="&lt;Path&gt;" class="cls-1" d="M91.76,35.48a4.14,4.14,0,1,0,.32-7A4.19,4.19,0,0,0,91.76,35.48Z"></path><path id="_Path_9" data-name="&lt;Path&gt;" class="cls-1" d="M31,34.7a3,3,0,1,0,1.25-5.1A3,3,0,0,0,31,34.7Z"></path><path id="_Path_10" data-name="&lt;Path&gt;" class="cls-1" d="M108.5,35.2a3.06,3.06,0,0,0,4.58-2.63,3,3,0,1,0-4.58,2.63Z"></path><path id="_Path_11" data-name="&lt;Path&gt;" class="cls-1" d="M57.34,38a5.22,5.22,0,1,0,2.9-6.22A5.26,5.26,0,0,0,57.34,38Z"></path><path id="_Path_12" data-name="&lt;Path&gt;" class="cls-1" d="M76.86,39.92c2.4,3.09,8,2,8.95-1.84,1.33-3.76-2.66-7.87-6.45-6.53A5.25,5.25,0,0,0,76.86,39.92Z"></path><path id="_Path_13" data-name="&lt;Path&gt;" class="cls-1" d="M18.39,39.18A2,2,0,1,0,15,40.39C16,41.68,18.49,40.86,18.39,39.18Z"></path><path id="_Path_14" data-name="&lt;Path&gt;" class="cls-1" d="M125.53,37.68a2,2,0,1,0,3.11,1A2,2,0,0,0,125.53,37.68Z"></path><path id="_Path_15" data-name="&lt;Path&gt;" class="cls-1" d="M43.28,49.95c3,2.44,8,.17,8.25-3.65.61-3.8-3.84-7-7.28-5.35C40.66,42.36,40,47.81,43.28,49.95Z"></path><path id="_Path_16" data-name="&lt;Path&gt;" class="cls-1" d="M30.31,51.89A4.16,4.16,0,0,0,36.7,49c.6-3.22-3.32-6-6.12-4.21A4.22,4.22,0,0,0,30.31,51.89Z"></path><path id="_Path_17" data-name="&lt;Path&gt;" class="cls-1" d="M17.92,54a3,3,0,1,0,4.14,3.27A3.09,3.09,0,0,0,17.92,54Z"></path><path id="_Path_18" data-name="&lt;Path&gt;" class="cls-1" d="M33.9,65.89c3,2.57,8.2.26,8.39-3.66.5-3.78-3.83-7-7.28-5.25C31.43,58.34,30.81,63.66,33.9,65.89Z"></path><path id="_Path_19" data-name="&lt;Path&gt;" class="cls-1" d="M30.67,71.55c.62-3.22-3.28-6-6.09-4.24a4.21,4.21,0,0,0-.31,7.09A4.16,4.16,0,0,0,30.67,71.55Z"></path><path id="_Path_20" data-name="&lt;Path&gt;" class="cls-1" d="M7,69.06a2,2,0,0,0-.78,3,1.94,1.94,0,0,0,3.4-.52A2,2,0,0,0,7,69.06Z"></path><path id="_Path_21" data-name="&lt;Path&gt;" class="cls-1" d="M42,81.93c1.58-3.78-2.55-8.08-6.39-6.73a5.25,5.25,0,0,0-2.43,8.47C35.58,86.6,40.88,85.58,42,81.93Z"></path><path id="_Path_22" data-name="&lt;Path&gt;" class="cls-1" d="M18,82.21a3,3,0,1,0,4,3.5A3,3,0,0,0,18,82.21Z"></path><path id="_Path_23" data-name="&lt;Path&gt;" class="cls-1" d="M31.74,89.41a4.11,4.11,0,0,0-2.57,6.43c1.72,2.6,6.18,2.12,7.21-.86C37.73,92.11,34.79,88.63,31.74,89.41Z"></path><path id="_Path_24" data-name="&lt;Path&gt;" class="cls-1" d="M51.48,96.76a5.24,5.24,0,0,0-7.21-5.35c-3.64,1.36-4.29,6.93-1,9.05C46.29,102.84,51.29,100.64,51.48,96.76Z"></path><path id="_Path_25" data-name="&lt;Path&gt;" class="cls-1" d="M60.84,100.44c-3.9.92-5.07,6.55-1.92,9a5.22,5.22,0,0,0,8.42-2.79C68.41,103,64.47,99.21,60.84,100.44Z"></path><path id="_Path_26" data-name="&lt;Path&gt;" class="cls-1" d="M85.7,107.17c1.52-3.74-2.43-7.9-6.23-6.76-3.68.81-5.25,5.93-2.52,8.59A5.25,5.25,0,0,0,85.7,107.17Z"></path><path id="_Path_27" data-name="&lt;Path&gt;" class="cls-1" d="M15.84,100.89a2,2,0,1,0,2.4,2.36A1.94,1.94,0,0,0,15.84,100.89Z"></path><path id="_Path_28" data-name="&lt;Path&gt;" class="cls-1" d="M125.52,101.33a2,2,0,1,0,3,1A2,2,0,0,0,125.52,101.33Z"></path><path id="_Path_29" data-name="&lt;Path&gt;" class="cls-1" d="M47.51,106.1a4.11,4.11,0,0,0-1.37,6.79A4.16,4.16,0,0,0,53,111.1C54.13,108,50.53,104.72,47.51,106.1Z"></path><path id="_Path_30" data-name="&lt;Path&gt;" class="cls-1" d="M92.09,106.31a4.2,4.2,0,0,0-.4,7.12c2.55,1.89,6.57-.28,6.46-3.43C98.28,107,94.69,104.72,92.09,106.31Z"></path><path id="_Path_31" data-name="&lt;Path&gt;" class="cls-1" d="M31.65,106.73a3,3,0,1,0,4.27,3.72C37,108,33.94,105.33,31.65,106.73Z"></path><path id="_Path_32" data-name="&lt;Path&gt;" class="cls-1" d="M108.5,106.85a3,3,0,1,0,4.51,3.1A3,3,0,0,0,108.5,106.85Z"></path><path id="_Path_33" data-name="&lt;Path&gt;" class="cls-1" d="M69.57,112.34A4.15,4.15,0,1,0,75.63,116,4.15,4.15,0,0,0,69.57,112.34Z"></path><path id="_Path_34" data-name="&lt;Path&gt;" class="cls-1" d="M56.42,120.68a3.07,3.07,0,0,0-.86,5.22,3,3,0,1,0,.86-5.22Z"></path><path id="_Path_35" data-name="&lt;Path&gt;" class="cls-1" d="M84.44,120.72a3.07,3.07,0,0,0-.81,5.15,3.05,3.05,0,1,0,.81-5.15Z"></path><path id="_Path_36" data-name="&lt;Path&gt;" class="cls-1" d="M38.77,124.35a2,2,0,1,0,2.6,2.6A2,2,0,0,0,38.77,124.35Z"></path><path id="_Path_37" data-name="&lt;Path&gt;" class="cls-1" d="M102.53,124.49a2,2,0,1,0,2.71,1.38A1.91,1.91,0,0,0,102.53,124.49Z"></path><path id="_Path_38" data-name="&lt;Path&gt;" class="cls-1" d="M70.16,133.26a2,2,0,1,0,3.21,1.93C73.93,133.44,71.43,131.77,70.16,133.26Z"></path><path id="_Path_39" data-name="&lt;Path&gt;" class="cls-1" d="M83.76,71.92h-17V65.08h16.4V59.76H66.75v-7h17V47.25H61.08V77.54H83.76Z"></path><polygon id="_Path_40" data-name="&lt;Path&gt;" class="cls-1" points="122.01 77.59 122.01 47.29 115.48 47.29 106 60.32 96.52 47.29 89.94 47.29 89.94 77.59 95.66 77.59 95.66 55.56 105.31 68.76 106.43 68.76 116.3 55.6 116.3 77.59 122.01 77.59"></polygon><path id="_Path_41" data-name="&lt;Path&gt;" class="cls-1" d="M129,77.54H151.7V71.92h-17V65.08h16.4V59.76h-16.4v-7h17V47.25H129Z"></path><path id="_Compound_Path_" data-name="&lt;Compound Path&gt;" class="cls-1" d="M184.72,77.15l-9.18-10.34c5.76-1.17,7.66-5.37,7.66-9.52,0-5.24-3.77-10-10.91-10-4.8,0-9.61,0-14.41,0V77.54h5.71V67.42h5.5l8.83,10.13h6.79ZM163.6,62.27V52.57h8.7c3.59,0,5.19,2.42,5.19,4.85s-1.56,4.85-5.19,4.85Z"></path><path id="_Path_42" data-name="&lt;Path&gt;" class="cls-1" d="M202.68,65.12h7.75v5.37a10.07,10.07,0,0,1-6.84,2.42c-7.53,0-10.43-5.15-10.43-10.13,0-6.23,3.94-11.17,10.43-11.17a11.61,11.61,0,0,1,7.7,3L214.84,51a16,16,0,0,0-11.25-4.63c-10.69,0-16,7.88-16,16.4,0,8,4.63,15.45,16,15.45a15.09,15.09,0,0,0,12.07-5.45V60h-13Z"></path><path id="_Path_43" data-name="&lt;Path&gt;" class="cls-1" d="M222,77.54h22.68V71.92h-17V65.08H244V59.76h-16.4v-7h17V47.25H222Z"></path><polygon id="_Path_44" data-name="&lt;Path&gt;" class="cls-1" points="257.85 57.12 273.78 77.59 273.78 77.54 277.33 77.54 277.33 47.21 271.62 47.21 271.62 66.03 256.77 47.25 252.14 47.25 252.14 77.54 257.85 77.54 257.85 57.12"></polygon><path id="_Path_45" data-name="&lt;Path&gt;" class="cls-1" d="M282.52,47.25v5.19h9.61v25.1h5.71V52.44h9.61V47.25Z"></path><path id="_Compound_Path_2" data-name="&lt;Compound Path&gt;" class="cls-1" d="M61.08,84.92V95.35h4.1a5.21,5.21,0,1,0,0-10.42ZM68.43,90a3.09,3.09,0,0,1-3.26,3.43H63V86.79h2.14A3.1,3.1,0,0,1,68.43,90Z"></path><path id="_Path_46" data-name="&lt;Path&gt;" class="cls-1" d="M83.92,86.83V84.92h-7.8V95.35h7.8V93.41H78.07V91.06h5.64V89.23H78.07v-2.4Z"></path><path id="_Compound_Path_3" data-name="&lt;Compound Path&gt;" class="cls-1" d="M93.51,84.92,88.83,95.35H91l.89-2h5.45l.88,2h2.14L95.65,84.92Zm-.86,6.63,1.94-4.44,1.94,4.44Z"></path><polygon id="_Path_47" data-name="&lt;Path&gt;" class="cls-1" points="107.8 84.92 105.84 84.92 105.84 95.35 113.16 95.35 113.16 93.53 107.8 93.53 107.8 84.92"></polygon><path id="_Path_48" data-name="&lt;Path&gt;" class="cls-1" d="M126.79,93.41h-5.85V91.06h5.64V89.23h-5.64v-2.4h5.85V84.92H119V95.35h7.8Z"></path><path id="_Compound_Path_4" data-name="&lt;Compound Path&gt;" class="cls-1" d="M141.5,88.38a3.45,3.45,0,0,0-3.75-3.45h-5V95.35h2V91.86h1.89l3,3.48H142v-.13l-3.16-3.56A3.09,3.09,0,0,0,141.5,88.38Zm-6.75,1.71V86.76h3a1.67,1.67,0,1,1,0,3.34Z"></path><path id="_Path_49" data-name="&lt;Path&gt;" class="cls-1" d="M158.89,89c-1.25-.15-2.32-.4-2.32-1.31s.7-1.38,2.16-1.38a3,3,0,0,1,2.47,1.16l1.56-.8c-.79-1.61-2.47-2.07-4.1-2.07-1.92,0-4,.89-4,3,0,2.34,2,2.9,4.09,3.16,1.38.15,2.41.55,2.41,1.53s-1.16,1.56-2.4,1.56a3,3,0,0,1-2.93-1.65l-1.64.85c.77,1.91,2.41,2.56,4.54,2.56,2.32,0,4.38-1,4.38-3.32C163.09,89.81,161.06,89.24,158.89,89Z"></path><path id="_Path_50" data-name="&lt;Path&gt;" class="cls-1" d="M169,95.35h7.8V93.41H171V91.06h5.64V89.23H171v-2.4h5.85V84.92H169Z"></path><path id="_Compound_Path_5" data-name="&lt;Compound Path&gt;" class="cls-1" d="M191.56,88.38a3.45,3.45,0,0,0-3.75-3.45h-5V95.35h2V91.86h1.89l3,3.48h2.34v-.13l-3.16-3.56A3.09,3.09,0,0,0,191.56,88.38Zm-6.75,1.71V86.76h3a1.67,1.67,0,1,1,0,3.34Z"></path><polygon id="_Path_51" data-name="&lt;Path&gt;" class="cls-1" points="201.98 93.04 198.84 84.92 196.64 84.92 200.97 95.39 203.01 95.39 207.34 84.92 205.14 84.92 201.98 93.04"></polygon><rect id="_Path_52" data-name="&lt;Path&gt;" class="cls-1" x="213.03" y="84.92" width="1.95" height="10.42"></rect><path id="_Path_53" data-name="&lt;Path&gt;" class="cls-1" d="M226.52,93.74a3.34,3.34,0,0,1-3.59-3.53,3.42,3.42,0,0,1,3.59-3.62,3.58,3.58,0,0,1,2.52,1l1.31-1.27a5.38,5.38,0,0,0-3.83-1.59A5.25,5.25,0,0,0,221,90.21a5.12,5.12,0,0,0,5.52,5.38,5.49,5.49,0,0,0,4-1.55l-1.34-1.36A3.84,3.84,0,0,1,226.52,93.74Z"></path><path id="_Path_54" data-name="&lt;Path&gt;" class="cls-1" d="M236,95.35h7.8V93.41H238V91.06h5.64V89.23H238v-2.4h5.85V84.92H236Z"></path><path id="_Path_55" data-name="&lt;Path&gt;" class="cls-1" d="M254.25,89c-1.25-.15-2.32-.4-2.32-1.31s.7-1.38,2.16-1.38a3,3,0,0,1,2.47,1.16l1.56-.8c-.79-1.61-2.47-2.07-4.1-2.07-1.92,0-4,.89-4,3,0,2.34,2,2.9,4.09,3.16,1.38.15,2.41.55,2.41,1.53s-1.16,1.56-2.4,1.56a3,3,0,0,1-2.93-1.65l-1.64.85c.77,1.91,2.41,2.56,4.54,2.56,2.32,0,4.38-1,4.38-3.32C258.45,89.81,256.42,89.24,254.25,89Z"></path><polygon id="_Path_56" data-name="&lt;Path&gt;" class="cls-1" points="273.87 84.92 271.91 84.92 271.91 95.35 279.23 95.35 279.23 93.53 273.87 93.53 273.87 84.92"></polygon><polygon id="_Path_57" data-name="&lt;Path&gt;" class="cls-1" points="287.05 84.92 285.08 84.92 285.08 95.35 292.41 95.35 292.41 93.53 287.05 93.53 287.05 84.92"></polygon><path id="_Path_58" data-name="&lt;Path&gt;" class="cls-1" d="M303.49,93.74a3.34,3.34,0,0,1-3.59-3.53,3.42,3.42,0,0,1,3.59-3.62,3.58,3.58,0,0,1,2.52,1l1.31-1.27a5.38,5.38,0,0,0-3.83-1.59A5.25,5.25,0,0,0,298,90.21a5.12,5.12,0,0,0,5.52,5.38,5.49,5.49,0,0,0,4-1.55l-1.34-1.36A3.84,3.84,0,0,1,303.49,93.74Z"></path></g></svg>